<svg width="41" height="33" viewBox="0 0 41 33" fill="none" xmlns="http://www.w3.org/2000/svg">
<path d="M36.9167 0.833334H4.91675C2.71675 0.833334 0.936748 2.63333 0.936748 4.83333L0.916748 28.8333C0.916748 31.0333 2.71675 32.8333 4.91675 32.8333H36.9167C39.1167 32.8333 40.9167 31.0333 40.9167 28.8333V4.83333C40.9167 2.63333 39.1167 0.833334 36.9167 0.833334ZM34.9167 28.8333H6.91675C5.81675 28.8333 4.91675 27.9333 4.91675 26.8333V8.83333L18.7967 17.5133C20.0967 18.3333 21.7367 18.3333 23.0367 17.5133L36.9167 8.83333V26.8333C36.9167 27.9333 36.0167 28.8333 34.9167 28.8333ZM20.9167 14.8333L4.91675 4.83333H36.9167L20.9167 14.8333Z" fill="#A8ADAF"/>
</svg>
