<svg width="56" height="56" viewBox="0 0 56 56" fill="none" xmlns="http://www.w3.org/2000/svg">
<path d="M56 28.2016C56 40.7356 47.9264 51.3547 36.9325 55.1846C35.3865 55.5327 34.8712 54.6623 34.8712 53.7919C34.8712 52.9214 35.0429 49.7879 35.0429 45.9581C35.0429 43.3468 34.0123 41.606 33.1534 40.7356C39.3374 40.0392 45.865 37.7762 45.865 26.8089C45.865 23.6754 44.8344 21.2382 42.9448 19.1492C43.2884 18.4529 44.319 15.6676 42.773 11.6636C41.1697 11.1994 38.593 12.1858 35.0429 14.623C32.8098 13.9267 30.4049 13.5785 28 13.5785C25.5951 13.5785 23.1902 13.9267 20.9571 14.623C17.407 12.1858 14.8875 11.1994 13.3988 11.6636C11.8528 15.6676 12.7116 18.4529 13.0552 19.1492C11.3374 21.2382 10.135 23.6754 10.135 26.8089C10.135 37.6021 16.6626 40.0392 22.8466 40.7356C22.1595 41.606 21.3006 42.8246 21.1288 44.5654C19.5828 45.2618 15.4601 46.6544 13.0552 42.3023C12.0245 40.4454 10.593 39.459 8.76072 39.3429C6.92841 39.3429 6.87117 39.9232 8.58896 41.0838C9.73415 41.664 10.7648 43.0567 11.681 45.2618C12.7117 48.8595 15.861 50.0781 21.1288 48.9175C21.1288 51.3547 21.1288 53.0955 21.1288 53.7919C21.1288 54.4882 20.6135 55.5327 19.2393 55.1846C8.07362 51.3547 0 40.7356 0 28.2016C0 12.534 12.5399 0 28 0C43.4601 0 56 12.534 56 28.2016V28.2016Z" fill="#A8ADAF"/>
</svg>
