<svg width="46" height="46" viewBox="0 0 46 46" fill="none" xmlns="http://www.w3.org/2000/svg">
<path d="M39.1972 39.198H32.3803V28.5228C32.3803 25.9776 32.335 22.6993 28.8349 22.6993C25.2858 22.6993 24.7415 25.4731 24.7415 28.3389V39.198H17.9234V17.2449H24.4669V20.2449H24.5588C25.2136 19.1254 26.1599 18.2046 27.2968 17.5805C28.4337 16.9564 29.7186 16.6525 31.0146 16.7012C37.9235 16.7012 39.1972 21.249 39.1972 27.157V39.198ZM10.2348 14.245C9.45248 14.2452 8.68767 14.0134 8.03706 13.579C7.38644 13.1445 6.87924 12.5269 6.57963 11.8042C6.28002 11.0815 6.20146 10.2862 6.35385 9.51881C6.50623 8.75145 6.88274 8.0465 7.43575 7.49313C7.98877 6.93975 8.69344 6.5628 9.46069 6.40993C10.2279 6.25706 11.0233 6.33515 11.7462 6.63431C12.469 6.93348 13.087 7.4403 13.5218 8.09067C13.9566 8.74103 14.1889 9.50574 14.1891 10.2881C14.1893 10.8076 14.0871 11.322 13.8885 11.8019C13.6898 12.2819 13.3986 12.7181 13.0314 13.0855C12.6642 13.4529 12.2283 13.7444 11.7484 13.9434C11.2686 14.1423 10.7543 14.2448 10.2348 14.245V14.245ZM13.6442 39.198H6.81934V17.2449H13.6429L13.6442 39.198ZM42.5962 0.000247778H3.39526C2.50548 -0.0098935 1.64803 0.333638 1.01138 0.955356C0.374743 1.57707 0.0109901 2.42612 0 3.31592V42.6804C0.0105082 43.5707 0.373996 44.4204 1.01064 45.0428C1.64728 45.6652 2.50499 46.0094 3.39526 45.9998H42.5956C43.4869 46.0101 44.3459 45.6664 44.9842 45.0441C45.6224 44.4218 45.9877 43.5718 46 42.6804V3.31592C45.9872 2.42508 45.6217 1.57567 44.9834 0.95407C44.3452 0.33247 43.4864 -0.0105582 42.5956 0.000247778" fill="#A8ADAF"/>
</svg>
