<svg width="936" height="523" viewBox="0 0 936 523" fill="none" xmlns="http://www.w3.org/2000/svg">
<path fill-rule="evenodd" clip-rule="evenodd" d="M827.412 184.504H89.2144V180.257H827.412V184.504Z" fill="#A8ADAF"/>
<path fill-rule="evenodd" clip-rule="evenodd" d="M98.8558 136.113C94.7032 136.113 91.338 139.478 91.338 143.628V581.079C91.338 585.229 94.7036 588.595 98.8558 588.595H817.772C821.924 588.595 825.288 585.229 825.288 581.079V143.628C825.288 139.477 821.924 136.113 817.772 136.113H98.8558ZM87.0911 143.628C87.0911 137.131 92.3589 131.866 98.8558 131.866H817.772C824.269 131.866 829.535 137.131 829.535 143.628V581.079C829.535 587.575 824.27 592.842 817.772 592.842H98.8558C92.3585 592.842 87.0911 587.575 87.0911 581.079V143.628Z" fill="#A8ADAF"/>
<path d="M137.865 158.678C137.865 162.406 134.842 165.431 131.113 165.431C127.383 165.431 124.36 162.406 124.36 158.678C124.36 154.948 127.383 151.925 131.113 151.925C134.842 151.925 137.865 154.948 137.865 158.678Z" fill="#A0BDFF"/>
<path fill-rule="evenodd" clip-rule="evenodd" d="M131.113 163.273C133.65 163.273 135.707 161.215 135.707 158.678C135.707 156.14 133.651 154.083 131.113 154.083C128.575 154.083 126.518 156.14 126.518 158.678C126.518 161.215 128.575 163.273 131.113 163.273ZM131.113 165.431C134.842 165.431 137.865 162.406 137.865 158.678C137.865 154.948 134.842 151.925 131.113 151.925C127.383 151.925 124.36 154.948 124.36 158.678C124.36 162.406 127.383 165.431 131.113 165.431Z" fill="#A0BDFF"/>
<path d="M164.107 158.678C164.107 162.406 161.084 165.431 157.355 165.431C153.625 165.431 150.602 162.406 150.602 158.678C150.602 154.948 153.625 151.925 157.355 151.925C161.084 151.925 164.107 154.948 164.107 158.678Z" fill="#407BFF"/>
<path fill-rule="evenodd" clip-rule="evenodd" d="M157.355 163.273C159.892 163.273 161.949 161.215 161.949 158.678C161.949 156.14 159.893 154.083 157.355 154.083C154.817 154.083 152.76 156.14 152.76 158.678C152.76 161.215 154.817 163.273 157.355 163.273ZM157.355 165.431C161.084 165.431 164.107 162.406 164.107 158.678C164.107 154.948 161.084 151.925 157.355 151.925C153.625 151.925 150.602 154.948 150.602 158.678C150.602 162.406 153.625 165.431 157.355 165.431Z" fill="#407BFF"/>
<path d="M190.351 158.678C190.351 162.406 187.328 165.431 183.598 165.431C179.869 165.431 176.845 162.406 176.845 158.678C176.845 154.948 179.869 151.925 183.598 151.925C187.328 151.925 190.351 154.948 190.351 158.678Z" fill="#264A99"/>
<path fill-rule="evenodd" clip-rule="evenodd" d="M183.598 163.273C186.136 163.273 188.193 161.215 188.193 158.678C188.193 156.14 186.136 154.083 183.598 154.083C181.06 154.083 179.003 156.14 179.003 158.678C179.003 161.215 181.061 163.273 183.598 163.273ZM183.598 165.431C187.328 165.431 190.351 162.406 190.351 158.678C190.351 154.948 187.328 151.925 183.598 151.925C179.869 151.925 176.845 154.948 176.845 158.678C176.845 162.406 179.869 165.431 183.598 165.431Z" fill="#264A99"/>
<path d="M791.762 299.022H881.933C886.85 299.022 890.836 295.037 890.836 290.122V216.221C890.836 211.305 886.85 207.32 881.933 207.32H791.762C786.847 207.32 782.861 211.305 782.861 216.221V290.122C782.861 295.037 786.847 299.022 791.762 299.022Z" fill="#264A99"/>
<path fill-rule="evenodd" clip-rule="evenodd" d="M809.874 235.003C809.874 234.022 810.669 233.226 811.651 233.226H861.48C862.461 233.226 863.257 234.022 863.257 235.003V268.418C863.257 269.399 862.461 270.195 861.48 270.195H811.651C810.669 270.195 809.874 269.399 809.874 268.418V235.003ZM813.428 236.781V266.641H859.703V236.781H813.428Z" fill="white"/>
<path fill-rule="evenodd" clip-rule="evenodd" d="M811.652 235.003L836.491 253.159L861.478 235.003H855.439L836.498 248.767L817.668 235.003H811.652Z" fill="white"/>
<path d="M119.584 448.68H33.7722C28.3514 448.68 23.958 444.285 23.958 438.864V355.993C23.958 350.572 28.3514 346.18 33.7722 346.18H119.584C125.004 346.18 129.399 350.572 129.399 355.993V438.864C129.399 444.285 125.004 448.68 119.584 448.68Z" fill="#B3CAFF"/>
<path fill-rule="evenodd" clip-rule="evenodd" d="M77.3219 372.211C62.8648 372.211 51.1461 383.93 51.1461 398.385C51.1461 412.842 62.865 424.562 77.3219 424.562C91.7788 424.562 103.498 412.842 103.498 398.385C103.498 383.93 91.779 372.211 77.3219 372.211ZM46.8301 398.385C46.8301 381.546 60.4813 367.895 77.3219 367.895C94.1625 367.895 107.814 381.546 107.814 398.385C107.814 415.226 94.1627 428.878 77.3219 428.878C60.481 428.878 46.8301 415.226 46.8301 398.385Z" fill="white"/>
<path fill-rule="evenodd" clip-rule="evenodd" d="M101.354 385.96H53.3977V380.781H101.354V385.96Z" fill="white"/>
<path fill-rule="evenodd" clip-rule="evenodd" d="M105.372 400.976H48.988V395.797H105.372V400.976Z" fill="white"/>
<path fill-rule="evenodd" clip-rule="evenodd" d="M101.348 415.994H53.2927V410.815H101.348V415.994Z" fill="white"/>
<path fill-rule="evenodd" clip-rule="evenodd" d="M71.4277 427.831C57.385 404.391 62.6683 382.778 70.5826 369.377L74.2989 371.571C66.9812 383.963 62.0911 403.848 75.1301 425.613L71.4277 427.831Z" fill="white"/>
<path fill-rule="evenodd" clip-rule="evenodd" d="M79.8682 424.996C91.3278 406.072 88.6689 385.668 80.6231 371.827L84.336 369.669C93.0508 384.66 95.9324 406.759 83.5418 427.22L79.8682 424.996Z" fill="white"/>
<path d="M929.419 457.983H856.666C853.569 457.983 851.058 455.473 851.058 452.376C851.058 449.279 853.569 446.769 856.666 446.769H929.419C932.516 446.769 935.026 449.279 935.026 452.376C935.026 455.473 932.516 457.983 929.419 457.983Z" fill="#264A99"/>
<path d="M878.465 522.846H869.575C867.239 522.846 865.345 520.951 865.345 518.615V510.269C865.345 507.933 867.239 506.041 869.575 506.041H878.465C880.8 506.041 882.694 507.933 882.694 510.269V518.615C882.694 520.951 880.8 522.846 878.465 522.846Z" fill="#407BFF"/>
<path d="M716.192 86.048H568.243C565.783 86.048 563.789 84.0539 563.789 81.5955V45.4728C563.789 43.0144 565.783 41.0232 568.243 41.0232H716.192C718.652 41.0232 720.644 43.0144 720.644 45.4728V81.5955C720.644 84.0539 718.652 86.048 716.192 86.048Z" fill="#B3CAFF"/>
<path fill-rule="evenodd" clip-rule="evenodd" d="M690.374 58.34H585.154V55.7935H690.374V58.34Z" fill="white"/>
<path fill-rule="evenodd" clip-rule="evenodd" d="M628.011 69.1387H585.154V66.5922H628.011V69.1387Z" fill="white"/>
<path d="M580.875 80.9554V98.5053L602.945 80.9554H580.875Z" fill="#B3CAFF"/>
<path d="M352.698 88.7281H281.078C274.121 88.7281 268.483 83.0886 268.483 76.1319V9.54808C268.483 4.27513 272.758 0 278.031 0H352.698C357.971 0 362.246 4.27513 362.246 9.54808V79.1786C362.246 84.453 357.971 88.7281 352.698 88.7281Z" fill="#264A99"/>
<path d="M337.246 50.926L331.908 45.588C330.954 44.5385 329.716 43.9664 328.477 43.9664C327.237 43.9664 325.998 44.537 325.044 45.4905L321.992 48.5431L321.42 48.2563C321.04 48.0656 320.754 47.971 320.468 47.7803C317.607 45.9679 315.034 43.585 312.555 40.5339C311.41 39.1044 310.553 37.7695 310.077 36.6253C310.838 35.9586 311.506 35.1944 312.173 34.5277C312.46 34.2424 312.745 33.9556 313.032 33.6703C314.08 32.6207 314.652 31.3819 314.652 30.1417C314.652 28.9029 314.08 27.6641 313.032 26.6146L310.362 23.9448C310.077 23.6595 309.79 23.3713 309.503 22.9913C308.933 22.4178 308.265 21.7526 307.693 21.1805C306.739 20.227 305.5 19.6549 304.26 19.6549C303.021 19.6549 301.876 20.1309 300.827 21.1805L297.491 24.5169C296.252 25.7572 295.489 27.3773 295.299 29.1882C295.108 32.0486 295.871 34.7184 296.538 36.4346C298.063 40.8206 300.445 44.7292 303.973 48.9245C308.263 53.9771 313.316 57.9818 319.227 60.8422C321.42 61.8903 324.472 63.1276 327.81 63.4144H328.477C330.765 63.4144 332.671 62.5584 334.195 60.9368L334.291 60.8422C334.768 60.2701 335.34 59.698 336.009 59.1259C336.39 58.7445 336.865 58.2671 337.246 57.8857C339.249 55.7895 339.249 52.9276 337.246 50.926ZM335.055 55.8826C334.674 56.264 334.291 56.6469 333.909 57.0283C333.241 57.6004 332.671 58.2671 332.003 58.9338C331.049 59.8872 330.001 60.3647 328.57 60.3647H328.095C325.235 60.174 322.565 59.0284 320.658 58.0749C315.224 55.4051 310.455 51.6888 306.452 46.9229C303.21 43.0129 301.02 39.2936 299.493 35.3851C298.541 33.0967 298.158 31.2859 298.348 29.475C298.443 28.4269 298.826 27.4734 299.685 26.7106L302.927 23.4688C303.212 23.182 303.688 22.8006 304.26 22.8006C304.832 22.8006 305.212 23.0874 305.593 23.4688C306.165 24.0409 306.739 24.6115 307.311 25.1836C307.598 25.4689 307.882 25.8518 308.263 26.1371L310.933 28.8083C311.218 29.0936 311.6 29.6657 311.6 30.1417C311.6 30.7138 311.218 31.1912 310.933 31.4766L310.077 32.3354C309.218 33.1928 308.455 33.9556 307.693 34.7184L307.598 34.8145C306.644 35.7679 306.834 36.6253 307.024 37.1974V37.292C307.691 39.0083 308.742 40.5339 310.172 42.4408C312.841 45.7787 315.7 48.3509 318.846 50.3525C319.227 50.6392 319.705 50.8314 320.088 51.0206C320.468 51.2128 320.754 51.3074 321.041 51.4981L321.134 51.5942C322.088 52.0702 323.041 51.8795 323.804 51.1167L327.141 47.7803C327.426 47.4935 327.905 47.1121 328.477 47.1121C328.953 47.1121 329.429 47.4935 329.714 47.7803L335.055 53.1183C335.914 53.9771 335.914 54.9291 335.055 55.8826Z" fill="white"/>
<path d="M545.578 443.661C545.578 443.661 574.879 440.978 594.912 427.763L594.385 416.133L545.559 422.784L545.578 443.661Z" fill="#F3968E"/>
<path d="M216.268 329.332L288.881 408.244C288.881 408.244 331.131 449.207 306.159 473.422C285.052 488.201 270.156 468.787 270.156 468.787C270.156 468.787 214.511 397.792 188.531 342.215C188.531 342.215 186.937 334.254 199.202 328.508C211.566 322.716 216.268 329.332 216.268 329.332Z" fill="#FFB0A4"/>
<path d="M223.057 342.326C223.424 351.225 216.507 358.739 207.607 359.107C198.706 359.474 191.193 352.555 190.826 343.656C190.459 334.756 197.376 327.243 206.277 326.876C215.177 326.508 222.69 333.426 223.057 342.326Z" fill="#FFB0A4"/>
<path d="M217.565 331.513C217.565 331.513 220.073 341.855 208.798 346.803C198.521 351.316 191.796 346.297 188.499 344.31C176.611 337.153 163.478 306.83 163.478 306.83C163.478 306.83 206.262 283.713 205.93 284.434C205.596 285.158 217.565 331.513 217.565 331.513Z" fill="#FFB0A4"/>
<path d="M217.564 331.511C216.809 329.141 222.623 301.683 224.503 291.426C224.957 288.953 222.971 286.579 220.333 286.434C218.616 286.341 215.993 286.907 215.066 289.477L206.378 310.342L217.564 331.511Z" fill="#FFB0A4"/>
<path d="M212.899 303.314L199.893 265.735C199.084 263.226 196.26 261.805 193.749 262.642C191.577 263.366 190.373 265.554 190.94 267.754L198.227 296.061L212.899 303.314Z" fill="#FFB0A4"/>
<path d="M195.523 291.157L181.235 265.001C180.035 262.704 177.135 261.734 174.843 262.864C172.857 263.844 171.973 266.099 172.759 268.186L184.907 299.003L195.523 291.157Z" fill="#FFB0A4"/>
<path d="M185.294 300.83L168.275 275.536C166.711 273.186 163.504 272.43 161.152 273.856C158.941 275.197 158.262 277.999 159.597 280.281L173.703 304.43L185.294 300.83Z" fill="#FFB0A4"/>
<path d="M163.478 306.83L150.757 291.646C149.624 289.81 150.128 287.51 151.908 286.388C153.61 285.312 155.94 285.659 157.345 287.199L173.701 304.43L163.478 306.83Z" fill="#FFB0A4"/>
<path d="M203.412 305.516C203.412 305.516 188.598 311.442 197.016 330.906L203.412 305.516Z" fill="#FFB0A4"/>
<path fill-rule="evenodd" clip-rule="evenodd" d="M202.795 303.982C202.797 303.982 202.798 303.981 203.412 305.516L202.798 303.981C203.645 303.642 204.607 304.055 204.946 304.902C205.285 305.748 204.875 306.708 204.031 307.049M204.031 307.049L204.029 307.05L204.027 307.05M204.031 307.049L204.016 307.055C204 307.062 203.97 307.075 203.929 307.094C203.846 307.131 203.716 307.192 203.548 307.279C203.212 307.452 202.726 307.725 202.162 308.111C201.029 308.886 199.607 310.096 198.426 311.839C196.134 315.223 194.516 320.962 198.533 330.25C198.896 331.088 198.51 332.061 197.672 332.424C196.834 332.786 195.861 332.4 195.499 331.563C191.098 321.387 192.678 314.431 195.688 309.985C197.159 307.814 198.914 306.326 200.295 305.382C200.988 304.908 201.594 304.566 202.035 304.339C202.256 304.226 202.436 304.14 202.566 304.081C202.631 304.052 202.684 304.029 202.723 304.013C202.742 304.004 202.758 303.998 202.771 303.992L202.787 303.986L202.793 303.983L202.795 303.982" fill="#253138"/>
<path d="M273.815 423.7C260.875 439.245 258.009 458.794 273.402 471.916C278.936 476.632 287.413 480.405 295.176 478.486C321.052 472.089 360.539 416.518 360.539 416.518L350.015 321.951L281.102 413.45L273.815 423.7Z" fill="#FFB0A4"/>
<path d="M300.688 384.573C300.688 384.573 325.871 421.31 347.067 434.076L360.536 416.518L306.896 376.334L300.688 384.573Z" fill="#F3968E"/>
<path d="M408.385 274.204C408.385 274.204 336.17 290.677 297.881 374.753C297.881 374.753 321.236 409.749 358.574 425.233L383.466 394.578L408.385 274.204Z" fill="#407BFF"/>
<path d="M592.945 401.287C597.86 455.59 592.674 495.154 594.108 595.074L546.792 597.056L539.741 410.024L592.945 401.287Z" fill="#FFB0A4"/>
<path d="M498.571 276.263C498.571 276.263 591.641 299.668 608.503 417.802C608.503 417.802 562.952 437.55 517.304 429.056L527.575 389.545L498.571 276.263Z" fill="#407BFF"/>
<path d="M408.396 273.956C380.17 288.434 362.423 307.635 362.423 307.635L367.992 553.113H545.869L545.292 308.9C545.292 308.9 522.871 286.96 498.57 276.263C477.932 267.178 428.462 263.664 408.396 273.956Z" fill="#407BFF"/>
<path fill-rule="evenodd" clip-rule="evenodd" d="M497.491 351.813H526.674V367.308C526.674 375.366 520.141 381.898 512.082 381.898C504.024 381.898 497.491 375.366 497.491 367.308V351.813ZM499.649 353.971V367.308C499.649 374.174 505.216 379.74 512.082 379.74C518.949 379.74 524.516 374.174 524.516 367.308V353.971H499.649Z" fill="#253138"/>
<path fill-rule="evenodd" clip-rule="evenodd" d="M547.928 348.159C548.76 348.183 549.415 348.877 549.391 349.709L547.085 430.011C547.061 430.844 546.367 431.499 545.535 431.475C544.703 431.451 544.048 430.757 544.072 429.925L546.378 349.623C546.402 348.791 547.096 348.135 547.928 348.159Z" fill="#253138"/>
<path fill-rule="evenodd" clip-rule="evenodd" d="M361.232 345.471C362.063 345.425 362.774 346.061 362.82 346.893L366.663 416.501C366.709 417.332 366.073 418.043 365.241 418.089C364.41 418.135 363.699 417.498 363.653 416.667L359.81 347.059C359.764 346.228 360.4 345.517 361.232 345.471Z" fill="#253138"/>
<path d="M480.022 267.2V204.912H422.6V267.2L405.507 274.992C405.507 274.992 409.516 300.808 451.913 301.382C494.311 301.954 498.57 276.263 498.57 276.263L480.022 267.2Z" fill="#FFB0A4"/>
<path d="M492.213 184.295C492.213 184.295 496.085 178.136 504.07 181.165C512.054 184.194 508.443 203.585 496.465 206.056C496.465 206.056 492.172 206.992 488.804 204.053C488.804 204.053 491.75 189.73 492.213 184.295Z" fill="#F3968E"/>
<path fill-rule="evenodd" clip-rule="evenodd" d="M502.961 186.575C502.962 186.575 502.963 186.575 502.487 188L502.963 186.575C503.753 186.839 504.179 187.693 503.916 188.482C503.654 189.267 502.808 189.693 502.023 189.44C502.02 189.439 502.014 189.437 502.006 189.435C501.982 189.428 501.935 189.416 501.869 189.401C501.735 189.372 501.523 189.335 501.248 189.313C500.697 189.269 499.903 189.29 498.978 189.565C497.185 190.098 494.629 191.669 492.408 196.277C492.046 197.027 491.145 197.342 490.395 196.98C489.645 196.619 489.331 195.718 489.692 194.968C492.219 189.727 495.381 187.489 498.119 186.675C499.46 186.277 500.634 186.24 501.485 186.308C501.911 186.341 502.259 186.401 502.51 186.456C502.635 186.483 502.737 186.509 502.813 186.53C502.851 186.541 502.883 186.55 502.908 186.558L502.941 186.568L502.953 186.572L502.958 186.574L502.961 186.575Z" fill="#253138"/>
<path d="M410.48 184.295C410.48 184.295 406.607 178.136 398.623 181.165C390.639 184.194 394.252 203.584 406.229 206.056C406.229 206.056 410.522 206.992 413.889 204.053C413.889 204.053 410.943 189.73 410.48 184.295Z" fill="#F3968E"/>
<path fill-rule="evenodd" clip-rule="evenodd" d="M400.207 188.005L399.729 186.575C398.94 186.839 398.513 187.693 398.777 188.482C399.039 189.267 399.884 189.693 400.669 189.44C400.672 189.439 400.678 189.437 400.687 189.435C400.711 189.428 400.757 189.416 400.824 189.401C400.957 189.372 401.169 189.335 401.444 189.313C401.995 189.269 402.79 189.29 403.714 189.565C405.508 190.098 408.063 191.669 410.284 196.277C410.646 197.027 411.547 197.342 412.297 196.98C413.047 196.619 413.362 195.718 413 194.968C410.473 189.727 407.311 187.489 404.573 186.675C403.233 186.277 402.058 186.24 401.207 186.308C400.781 186.341 400.434 186.401 400.183 186.456C400.057 186.483 399.955 186.509 399.879 186.53C399.841 186.541 399.809 186.55 399.784 186.558L399.752 186.568L399.739 186.572L399.734 186.574L399.731 186.575C399.73 186.575 399.729 186.575 400.207 188.005Z" fill="#253138"/>
<path d="M493.013 165.893C493.017 177.583 491.87 202.041 484.683 216.556C477.936 230.186 466.775 237.521 452.145 237.958C437.513 238.395 426.614 232.755 417.879 215.068C409.144 197.379 409.561 166.111 409.561 166.111C409.561 166.111 409.561 124.35 450.834 124.35C494.304 124.35 493.013 165.893 493.013 165.893Z" fill="#FFB0A4"/>
<path d="M423.032 223.783C423.032 223.783 427.839 248.182 449.074 250.986C473.512 254.212 480.022 224.403 480.022 224.403C480.022 224.403 469.223 237.935 452.145 237.956C433.099 237.981 423.032 223.783 423.032 223.783Z" fill="#253138"/>
<path fill-rule="evenodd" clip-rule="evenodd" d="M448.343 181.723C449.175 181.723 449.85 182.398 449.85 183.23V192.897C449.85 193.117 449.892 193.323 449.968 193.513L449.969 193.514C450.216 194.134 451.024 194.57 451.892 194.339L455.095 193.486C455.899 193.272 456.725 193.75 456.939 194.555C457.154 195.359 456.675 196.185 455.871 196.399L452.667 197.252C450.555 197.814 448.066 196.878 447.169 194.632L448.569 194.073L447.17 194.634C446.953 194.094 446.835 193.507 446.835 192.897V183.23C446.835 182.398 447.51 181.723 448.343 181.723Z" fill="#282828"/>
<path d="M458.008 159.921L483.268 166.449C483.268 166.449 482.12 159.362 471.785 156.787C461.451 154.214 458.008 159.921 458.008 159.921Z" fill="#253138"/>
<path d="M442.31 159.921L417.047 166.449C417.047 166.449 418.195 159.362 428.53 156.787C438.864 154.214 442.31 159.921 442.31 159.921Z" fill="#253138"/>
<path fill-rule="evenodd" clip-rule="evenodd" d="M466.631 201.944C467.011 202.685 466.719 203.593 465.978 203.974L465.29 202.632C465.978 203.974 465.977 203.974 465.977 203.974L465.976 203.975L465.973 203.976L465.967 203.979L465.948 203.989C465.932 203.996 465.911 204.007 465.885 204.02C465.833 204.045 465.759 204.081 465.664 204.124C465.474 204.212 465.2 204.333 464.847 204.476C464.14 204.762 463.115 205.137 461.806 205.51C459.188 206.256 455.429 206.996 450.812 206.996C445.764 206.996 442.221 206.26 439.9 205.491C438.74 205.108 437.89 204.717 437.312 204.409C437.023 204.255 436.803 204.122 436.648 204.022C436.57 203.972 436.508 203.929 436.462 203.897C436.438 203.88 436.419 203.866 436.404 203.855L436.383 203.84L436.375 203.834L436.372 203.831L436.37 203.83C436.369 203.829 436.369 203.829 437.286 202.632L436.369 203.829C435.708 203.322 435.583 202.376 436.089 201.716C436.593 201.059 437.531 200.931 438.191 201.427C438.191 201.427 438.191 201.427 438.191 201.427C438.192 201.428 438.195 201.43 438.198 201.432C438.211 201.442 438.239 201.461 438.282 201.489C438.368 201.544 438.516 201.634 438.73 201.748C439.157 201.976 439.851 202.299 440.848 202.629C442.84 203.289 446.06 203.981 450.812 203.981C455.107 203.981 458.586 203.293 460.98 202.611C462.176 202.27 463.099 201.931 463.715 201.682C464.023 201.557 464.253 201.455 464.403 201.386C464.477 201.352 464.532 201.326 464.565 201.309L464.601 201.291C464.602 201.291 464.601 201.291 464.601 201.291C464.602 201.291 464.603 201.291 464.603 201.291C464.603 201.29 464.604 201.29 464.604 201.29C465.344 200.912 466.251 201.204 466.631 201.944Z" fill="#253138"/>
<path fill-rule="evenodd" clip-rule="evenodd" d="M431.386 165.852C423.73 165.852 417.524 172.057 417.524 179.712C417.524 187.367 423.73 193.572 431.386 193.572C439.041 193.572 445.247 187.367 445.247 179.712C445.247 172.057 439.041 165.852 431.386 165.852ZM413.314 179.712C413.314 169.731 421.406 161.642 431.386 161.642C441.366 161.642 449.458 169.731 449.458 179.712C449.458 189.693 441.366 197.782 431.386 197.782C421.406 197.782 413.314 189.693 413.314 179.712Z" fill="#F6F5F8"/>
<path fill-rule="evenodd" clip-rule="evenodd" d="M470.607 165.852C462.952 165.852 456.745 172.057 456.745 179.712C456.745 187.367 462.952 193.572 470.607 193.572C478.262 193.572 484.469 187.367 484.469 179.712C484.469 172.057 478.262 165.852 470.607 165.852ZM452.535 179.712C452.535 169.731 460.627 161.642 470.607 161.642C480.587 161.642 488.679 169.731 488.679 179.712C488.679 189.693 480.587 197.782 470.607 197.782C460.627 197.782 452.535 189.693 452.535 179.712Z" fill="#F6F5F8"/>
<path d="M436.155 178.615C436.155 180.689 434.471 182.373 432.395 182.373C430.321 182.373 428.639 180.689 428.639 178.615C428.639 176.54 430.321 174.857 432.395 174.857C434.471 174.857 436.155 176.54 436.155 178.615Z" fill="#282828"/>
<path d="M436.53 178.615C436.53 180.897 434.678 182.749 432.395 182.749C430.114 182.749 428.263 180.897 428.263 178.615C428.263 176.332 430.114 174.482 432.395 174.482C434.678 174.482 436.53 176.332 436.53 178.615Z" fill="#253138"/>
<path d="M471.383 178.615C471.383 180.689 469.699 182.373 467.625 182.373C465.551 182.373 463.868 180.689 463.868 178.615C463.868 176.54 465.551 174.857 467.625 174.857C469.699 174.857 471.383 176.54 471.383 178.615Z" fill="#282828"/>
<path d="M471.759 178.615C471.759 180.897 469.907 182.749 467.625 182.749C465.344 182.749 463.492 180.897 463.492 178.615C463.492 176.332 465.344 174.482 467.625 174.482C469.907 174.482 471.759 176.332 471.759 178.615Z" fill="#253138"/>
<path fill-rule="evenodd" clip-rule="evenodd" d="M1.36816 86.0285C1.36816 81.2612 5.23284 77.3965 10.0002 77.3965H160.783C165.55 77.3965 169.415 81.2612 169.415 86.0285C169.415 90.7958 165.55 94.6605 160.783 94.6605H10.0002C5.23284 94.6605 1.36816 90.7958 1.36816 86.0285Z" fill="#407BFF"/>
</svg>
